<svg xmlns="http://www.w3.org/2000/svg" viewBox="0 0 1024 1024"><path fill="#6cdcb4" d="M264.5.549c-1.1.163-7.4.827-14 1.475C128.008 14.049 26.655 108.438 4.629 231 .43 254.366.5 249.596.5 512S.43 769.634 4.629 793C24.928 905.955 111.198 994.264 224.5 1018.069c26.42 5.551 12.976 5.273 274.5 5.677 278.731.431 275.406.515 310-7.887 99.528-24.172 177.488-99.513 204.61-197.737 4.552-16.486 8.329-38.676 9.09-53.408.335-6.483.989-12.022 1.454-12.309.466-.288.846-108.973.846-241.523 0-160.412-.334-240.793-1-240.382-.629.389-1-1.915-1-6.217 0-18.992-6.67-53.06-15.008-76.656C975.452 95.538 896.164 25.651 802.5 6.499 771.653.191 791.663.617 517 .426 379.225.33 265.6.385 264.5.549m65.977 208.431c-29.738 4.416-53.504 25.301-62.642 55.047l-2.296 7.473-.312 125.5c-.221 89.03.008 126.787.79 129.929 4.698 18.883 30.678 19.296 35.864.571.783-2.826 1.109-39.987 1.113-126.568.005-108.927.182-123.163 1.59-127.904 3.667-12.347 13.097-21.777 25.444-25.444 4.739-1.407 18.748-1.584 125.406-1.584h120.071l72.248 72.253L720 390.505v177.569c0 162.983-.137 177.975-1.664 182.498-3.403 10.077-11.117 18.559-21.161 23.268l-5.675 2.66-114 .5c-103.617.454-114.273.651-117 2.155-15.962 8.806-12.705 31.034 5.107 34.854 9.318 1.999 226.451.777 234.225-1.318 29.745-8.014 51.513-31.283 56.756-60.669 1.761-9.871 2.065-368.071.317-374.522-1.274-4.705-156.629-161.393-164.905-166.321l-4.5-2.679-126-.133c-69.3-.073-128.261.203-131.023.613M.492 512c0 132.825.116 187.163.258 120.75.142-66.412.142-175.087 0-241.5C.608 324.838.492 379.175.492 512M505 426.594c-126.985 20.711-118.937 18.866-123.75 28.381l-2.25 4.449v157.222l-5.93-2.846c-35.993-17.275-82.118-1.398-99.4 34.217-18.478 38.077-4.468 81.745 32.387 100.946 43.139 22.475 95.043-.778 108.173-48.463 2.196-7.975 2.204-8.327 2.536-114.466.182-58.556.471-106.604.64-106.773.169-.169 41.884-7.045 92.701-15.278 50.816-8.234 93.406-15.207 94.643-15.496l2.25-.525V559.875l-6.25-2.813c-21.918-9.864-47.767-9.25-67.701 1.607-26.128 14.232-39.61 37.218-39.492 67.331.09 22.971 5.58 36.113 21.943 52.53 38.427 38.555 102.65 25.237 123.16-25.541 5.363-13.276 5.342-12.778 5.318-125.827-.025-117.698.499-109.646-7.526-115.767-6.742-5.142-6.706-5.146-131.452 15.199m56.045 161.457c-24.391 5.008-37.371 31.474-26.6 54.241 10.398 21.979 41.675 27.543 59.98 10.67 15.621-14.398 15.21-41.042-.86-55.728-8.421-7.697-21.614-11.422-32.52-9.183m-230.116 57.257c-36.681 10.366-36.951 62.618-.377 73.25 29.968 8.712 57.109-21.745 45.499-51.058-6.612-16.696-27.762-27.098-45.122-22.192" fill-rule="evenodd"/></svg>